<?xml version="1.0" encoding="UTF-8" standalone="no"?>
<!DOCTYPE svg PUBLIC "-//W3C//DTD SVG 1.1//EN"
 "http://www.w3.org/Graphics/SVG/1.1/DTD/svg11.dtd">
<!-- Generated by graphviz version 2.40.1 (20161225.0304)
 -->
<!-- Title: Sielo Pages: 1 -->
<svg width="855pt" height="323pt"
 viewBox="0.00 0.00 854.91 323.20" xmlns="http://www.w3.org/2000/svg" xmlns:xlink="http://www.w3.org/1999/xlink">
<g id="graph0" class="graph" transform="scale(1 1) rotate(0) translate(4 319.2)">
<title>Sielo</title>
<polygon fill="#ffffff" stroke="transparent" points="-4,4 -4,-319.2 850.9124,-319.2 850.9124,4 -4,4"/>
<text text-anchor="middle" x="423.4562" y="-31" font-family="Helvetica,sans-Serif" font-style="oblique" font-size="18.00" fill="#000000">Sielo architecture</text>
<text text-anchor="middle" x="423.4562" y="-9.4" font-family="Helvetica,sans-Serif" font-style="oblique" font-size="18.00" fill="#000000">Sielo Team, 18/03/2019</text>
<!-- Sielo -->
<g id="node1" class="node">
<title>Sielo</title>
<g id="a_node1"><a xlink:href="https://sielo.app" xlink:title="Sielo">
<ellipse fill="#b0c4de" stroke="#b0c4de" cx="514.5933" cy="-297.2" rx="30.7751" ry="18"/>
<text text-anchor="middle" x="514.5933" y="-293" font-family="Times,serif" font-size="14.00" fill="#000000">Sielo</text>
</a>
</g>
</g>
<!-- History -->
<g id="node3" class="node">
<title>History</title>
<polygon fill="#708090" stroke="#708090" points="199.5863,-243.2 141.6003,-243.2 141.6003,-207.2 199.5863,-207.2 199.5863,-243.2"/>
<text text-anchor="middle" x="170.5933" y="-221" font-family="Times,serif" font-size="14.00" fill="#000000">History</text>
</g>
<!-- Sielo&#45;&gt;History -->
<g id="edge1" class="edge">
<title>Sielo&#45;&gt;History</title>
<path fill="none" stroke="#000000" d="M485.2641,-291.0613C423.4462,-278.1227 279.7406,-248.0448 209.9852,-233.4448"/>
<polygon fill="#000000" stroke="#000000" points="210.3533,-229.9461 199.8483,-231.3231 208.9192,-236.7976 210.3533,-229.9461"/>
</g>
<!-- Bookmarks -->
<g id="node4" class="node">
<title>Bookmarks</title>
<polygon fill="#708090" stroke="#708090" points="487.6416,-243.2 407.545,-243.2 407.545,-207.2 487.6416,-207.2 487.6416,-243.2"/>
<text text-anchor="middle" x="447.5933" y="-221" font-family="Times,serif" font-size="14.00" fill="#000000">Bookmarks</text>
</g>
<!-- Sielo&#45;&gt;Bookmarks -->
<g id="edge2" class="edge">
<title>Sielo&#45;&gt;Bookmarks</title>
<path fill="none" stroke="#000000" d="M499.7238,-281.2209C491.4291,-272.3071 480.8999,-260.9922 471.479,-250.8682"/>
<polygon fill="#000000" stroke="#000000" points="473.9208,-248.3545 464.5462,-243.4181 468.7963,-253.1231 473.9208,-248.3545"/>
</g>
<!-- Cookies -->
<g id="node5" class="node">
<title>Cookies</title>
<polygon fill="#708090" stroke="#708090" points="613.4798,-243.2 551.7068,-243.2 551.7068,-207.2 613.4798,-207.2 613.4798,-243.2"/>
<text text-anchor="middle" x="582.5933" y="-221" font-family="Times,serif" font-size="14.00" fill="#000000">Cookies</text>
</g>
<!-- Sielo&#45;&gt;Cookies -->
<g id="edge3" class="edge">
<title>Sielo&#45;&gt;Cookies</title>
<path fill="none" stroke="#000000" d="M529.6847,-281.2209C538.1033,-272.3071 548.7896,-260.9922 558.3511,-250.8682"/>
<polygon fill="#000000" stroke="#000000" points="561.0656,-253.0914 565.3873,-243.4181 555.9765,-248.285 561.0656,-253.0914"/>
</g>
<!-- WebEngine -->
<g id="node6" class="node">
<title>WebEngine</title>
<polygon fill="#708090" stroke="#708090" points="733.6803,-243.2 651.5063,-243.2 651.5063,-207.2 733.6803,-207.2 733.6803,-243.2"/>
<text text-anchor="middle" x="692.5933" y="-221" font-family="Times,serif" font-size="14.00" fill="#000000">WebEngine</text>
</g>
<!-- Sielo&#45;&gt;WebEngine -->
<g id="edge4" class="edge">
<title>Sielo&#45;&gt;WebEngine</title>
<path fill="none" stroke="#000000" d="M539.0473,-285.9634C544.1633,-283.678 549.5388,-281.3246 554.5933,-279.2 583.3207,-267.1246 615.7572,-254.3873 641.9617,-244.3176"/>
<polygon fill="#000000" stroke="#000000" points="643.2293,-247.5802 651.3157,-240.7347 640.7253,-241.0433 643.2293,-247.5802"/>
</g>
<!-- Backend -->
<g id="node2" class="node">
<title>Backend</title>
<polygon fill="#708090" stroke="#708090" points="628.0737,-315.2 563.1129,-315.2 563.1129,-279.2 628.0737,-279.2 628.0737,-315.2"/>
<text text-anchor="middle" x="595.5933" y="-293" font-family="Times,serif" font-size="14.00" fill="#000000">Backend</text>
</g>
<!-- HistoryViewer -->
<g id="node10" class="node">
<title>HistoryViewer</title>
<polygon fill="#6b8e23" stroke="#6b8e23" points="99.2801,-171.2 -.0935,-171.2 -.0935,-135.2 99.2801,-135.2 99.2801,-171.2"/>
<text text-anchor="middle" x="49.5933" y="-149" font-family="Times,serif" font-size="14.00" fill="#000000">HistoryViewer</text>
</g>
<!-- History&#45;&gt;HistoryViewer -->
<g id="edge5" class="edge">
<title>History&#45;&gt;HistoryViewer</title>
<path fill="none" stroke="#000000" d="M141.3026,-207.7708C125.4596,-198.3436 105.6847,-186.5767 88.5579,-176.3855"/>
<polygon fill="#000000" stroke="#000000" points="90.2614,-173.3264 79.8779,-171.2206 86.6818,-179.342 90.2614,-173.3264"/>
</g>
<!-- HistoryManager -->
<g id="node11" class="node">
<title>HistoryManager</title>
<polygon fill="#6b8e23" stroke="#6b8e23" points="224.3356,-171.2 116.851,-171.2 116.851,-135.2 224.3356,-135.2 224.3356,-171.2"/>
<text text-anchor="middle" x="170.5933" y="-149" font-family="Times,serif" font-size="14.00" fill="#000000">HistoryManager</text>
</g>
<!-- History&#45;&gt;HistoryManager -->
<g id="edge6" class="edge">
<title>History&#45;&gt;HistoryManager</title>
<path fill="none" stroke="#000000" d="M170.5933,-207.0314C170.5933,-199.331 170.5933,-190.1743 170.5933,-181.6166"/>
<polygon fill="#000000" stroke="#000000" points="174.0934,-181.6132 170.5933,-171.6133 167.0934,-181.6133 174.0934,-181.6132"/>
</g>
<!-- BookmarksViewer -->
<g id="node8" class="node">
<title>BookmarksViewer</title>
<polygon fill="#6b8e23" stroke="#6b8e23" points="364.3342,-171.2 242.8524,-171.2 242.8524,-135.2 364.3342,-135.2 364.3342,-171.2"/>
<text text-anchor="middle" x="303.5933" y="-149" font-family="Times,serif" font-size="14.00" fill="#000000">BookmarksViewer</text>
</g>
<!-- Bookmarks&#45;&gt;BookmarksViewer -->
<g id="edge7" class="edge">
<title>Bookmarks&#45;&gt;BookmarksViewer</title>
<path fill="none" stroke="#000000" d="M411.256,-207.0314C392.2537,-197.5302 368.8175,-185.8121 348.6681,-175.7374"/>
<polygon fill="#000000" stroke="#000000" points="350.1788,-172.5797 339.6693,-171.238 347.0483,-178.8407 350.1788,-172.5797"/>
</g>
<!-- BookmarksManager -->
<g id="node9" class="node">
<title>BookmarksManager</title>
<polygon fill="#6b8e23" stroke="#6b8e23" points="512.8896,-171.2 382.297,-171.2 382.297,-135.2 512.8896,-135.2 512.8896,-171.2"/>
<text text-anchor="middle" x="447.5933" y="-149" font-family="Times,serif" font-size="14.00" fill="#000000">BookmarksManager</text>
</g>
<!-- Bookmarks&#45;&gt;BookmarksManager -->
<g id="edge8" class="edge">
<title>Bookmarks&#45;&gt;BookmarksManager</title>
<path fill="none" stroke="#000000" d="M447.5933,-207.0314C447.5933,-199.331 447.5933,-190.1743 447.5933,-181.6166"/>
<polygon fill="#000000" stroke="#000000" points="451.0934,-181.6132 447.5933,-171.6133 444.0934,-181.6133 451.0934,-181.6132"/>
</g>
<!-- CookiesViewer -->
<g id="node12" class="node">
<title>CookiesViewer</title>
<polygon fill="#6b8e23" stroke="#6b8e23" points="634.1733,-171.2 531.0133,-171.2 531.0133,-135.2 634.1733,-135.2 634.1733,-171.2"/>
<text text-anchor="middle" x="582.5933" y="-149" font-family="Times,serif" font-size="14.00" fill="#000000">CookiesViewer</text>
</g>
<!-- Cookies&#45;&gt;CookiesViewer -->
<g id="edge9" class="edge">
<title>Cookies&#45;&gt;CookiesViewer</title>
<path fill="none" stroke="#000000" d="M582.5933,-207.0314C582.5933,-199.331 582.5933,-190.1743 582.5933,-181.6166"/>
<polygon fill="#000000" stroke="#000000" points="586.0934,-181.6132 582.5933,-171.6133 579.0934,-181.6133 586.0934,-181.6132"/>
</g>
<!-- CookiesManager -->
<g id="node13" class="node">
<title>CookiesManager</title>
<polygon fill="#6b8e23" stroke="#6b8e23" points="763.2293,-171.2 651.9573,-171.2 651.9573,-135.2 763.2293,-135.2 763.2293,-171.2"/>
<text text-anchor="middle" x="707.5933" y="-149" font-family="Times,serif" font-size="14.00" fill="#000000">CookiesManager</text>
</g>
<!-- Cookies&#45;&gt;CookiesManager -->
<g id="edge10" class="edge">
<title>Cookies&#45;&gt;CookiesManager</title>
<path fill="none" stroke="#000000" d="M613.4922,-207.4022C629.7455,-198.0404 649.868,-186.4498 667.3283,-176.3927"/>
<polygon fill="#000000" stroke="#000000" points="669.2633,-179.3173 676.1816,-171.2931 665.7694,-173.2515 669.2633,-179.3173"/>
</g>
<!-- Tabs -->
<g id="node15" class="node">
<title>Tabs</title>
<polygon fill="#6b8e23" stroke="#6b8e23" points="835.5933,-171.2 781.5933,-171.2 781.5933,-135.2 835.5933,-135.2 835.5933,-171.2"/>
<text text-anchor="middle" x="808.5933" y="-149" font-family="Times,serif" font-size="14.00" fill="#000000">Tabs</text>
</g>
<!-- WebEngine&#45;&gt;Tabs -->
<g id="edge11" class="edge">
<title>WebEngine&#45;&gt;Tabs</title>
<path fill="none" stroke="#000000" d="M721.865,-207.0314C737.2684,-197.4706 756.2884,-185.6651 772.588,-175.5481"/>
<polygon fill="#000000" stroke="#000000" points="774.6725,-178.3737 781.3232,-170.1263 770.981,-172.4262 774.6725,-178.3737"/>
</g>
<!-- FrontEnd -->
<g id="node7" class="node">
<title>FrontEnd</title>
<polygon fill="#6b8e23" stroke="#6b8e23" points="714.9798,-315.2 646.2068,-315.2 646.2068,-279.2 714.9798,-279.2 714.9798,-315.2"/>
<text text-anchor="middle" x="680.5933" y="-293" font-family="Times,serif" font-size="14.00" fill="#000000">FrontEnd</text>
</g>
<!-- TabsSpace -->
<g id="node14" class="node">
<title>TabsSpace</title>
<polygon fill="#6b8e23" stroke="#6b8e23" points="846.7323,-243.2 770.4543,-243.2 770.4543,-207.2 846.7323,-207.2 846.7323,-243.2"/>
<text text-anchor="middle" x="808.5933" y="-221" font-family="Times,serif" font-size="14.00" fill="#000000">TabsSpace</text>
</g>
<!-- TabsSpace&#45;&gt;Tabs -->
<g id="edge12" class="edge">
<title>TabsSpace&#45;&gt;Tabs</title>
<path fill="none" stroke="#000000" d="M808.5933,-207.0314C808.5933,-199.331 808.5933,-190.1743 808.5933,-181.6166"/>
<polygon fill="#000000" stroke="#000000" points="812.0934,-181.6132 808.5933,-171.6133 805.0934,-181.6133 812.0934,-181.6132"/>
</g>
</g>
</svg>
